<svg xmlns="http://www.w3.org/2000/svg" xmlns:xlink="http://www.w3.org/1999/xlink" width="500" zoomAndPan="magnify" viewBox="0 0 375 149.999998" height="200" preserveAspectRatio="xMidYMid meet" version="1.0"><defs><g/><clipPath id="9564de6589"><path d="M 279 21.753906 L 317 21.753906 L 317 60 L 279 60 Z M 279 21.753906 " clip-rule="nonzero"/></clipPath><clipPath id="b6395d71f5"><path d="M 279 76 L 337.355469 76 L 337.355469 128 L 279 128 Z M 279 76 " clip-rule="nonzero"/></clipPath></defs><g fill="#fdfeff" fill-opacity="1"><g transform="translate(20.94946, 94.948835)"><g><path d="M 7.890625 0 C 7.179688 0 6.585938 -0.238281 6.109375 -0.71875 C 5.628906 -1.195312 5.390625 -1.789062 5.390625 -2.5 L 5.390625 -36.21875 C 5.390625 -36.914062 5.628906 -37.515625 6.109375 -38.015625 C 6.585938 -38.515625 7.179688 -38.765625 7.890625 -38.765625 L 19.046875 -38.765625 C 23.273438 -38.765625 26.859375 -37.828125 29.796875 -35.953125 C 32.742188 -34.085938 34.957031 -31.675781 36.4375 -28.71875 C 37.914062 -25.757812 38.65625 -22.648438 38.65625 -19.390625 C 38.65625 -16.128906 37.914062 -13.015625 36.4375 -10.046875 C 34.957031 -7.085938 32.742188 -4.671875 29.796875 -2.796875 C 26.859375 -0.929688 23.273438 0 19.046875 0 Z M 18.4375 -4.71875 C 21.476562 -4.71875 24.144531 -5.335938 26.4375 -6.578125 C 28.738281 -7.816406 30.515625 -9.535156 31.765625 -11.734375 C 33.023438 -13.941406 33.65625 -16.492188 33.65625 -19.390625 C 33.65625 -22.273438 33.023438 -24.816406 31.765625 -27.015625 C 30.515625 -29.222656 28.738281 -30.945312 26.4375 -32.1875 C 24.144531 -33.425781 21.476562 -34.046875 18.4375 -34.046875 L 10.4375 -34.046875 L 10.4375 -4.71875 Z M 18.4375 -4.71875 "/></g></g></g><g fill="#fdfeff" fill-opacity="1"><g transform="translate(58.549183, 94.948835)"><g><path d="M 7.890625 0.28125 C 7.179688 0.28125 6.585938 0.0390625 6.109375 -0.4375 C 5.628906 -0.925781 5.390625 -1.519531 5.390625 -2.21875 L 5.390625 -36.5 C 5.390625 -37.195312 5.628906 -37.796875 6.109375 -38.296875 C 6.585938 -38.796875 7.179688 -39.046875 7.890625 -39.046875 C 8.585938 -39.046875 9.1875 -38.796875 9.6875 -38.296875 C 10.1875 -37.796875 10.4375 -37.195312 10.4375 -36.5 L 10.4375 -2.21875 C 10.4375 -1.519531 10.1875 -0.925781 9.6875 -0.4375 C 9.1875 0.0390625 8.585938 0.28125 7.890625 0.28125 Z M 7.890625 0.28125 "/></g></g></g><g fill="#fdfeff" fill-opacity="1"><g transform="translate(70.266971, 94.948835)"><g><path d="M 22.546875 0.5625 C 18.734375 0.5625 15.34375 -0.28125 12.375 -1.96875 C 9.414062 -3.65625 7.125 -6.003906 5.5 -9.015625 C 3.875 -12.035156 3.0625 -15.472656 3.0625 -19.328125 C 3.0625 -23.253906 3.910156 -26.734375 5.609375 -29.765625 C 7.316406 -32.804688 9.640625 -35.160156 12.578125 -36.828125 C 15.523438 -38.492188 18.796875 -39.328125 22.390625 -39.328125 C 25.273438 -39.328125 27.800781 -38.972656 29.96875 -38.265625 C 32.132812 -37.566406 34.21875 -36.585938 36.21875 -35.328125 C 36.507812 -35.179688 36.765625 -34.921875 36.984375 -34.546875 C 37.210938 -34.179688 37.328125 -33.773438 37.328125 -33.328125 C 37.328125 -32.703125 37.113281 -32.164062 36.6875 -31.71875 C 36.257812 -31.269531 35.695312 -31.046875 35 -31.046875 C 34.59375 -31.046875 34.203125 -31.140625 33.828125 -31.328125 C 32.085938 -32.367188 30.347656 -33.144531 28.609375 -33.65625 C 26.867188 -34.175781 24.976562 -34.4375 22.9375 -34.4375 C 20.125 -34.4375 17.585938 -33.84375 15.328125 -32.65625 C 13.066406 -31.476562 11.296875 -29.75 10.015625 -27.46875 C 8.742188 -25.1875 8.109375 -22.472656 8.109375 -19.328125 C 8.109375 -16.441406 8.707031 -13.859375 9.90625 -11.578125 C 11.113281 -9.304688 12.851562 -7.507812 15.125 -6.1875 C 17.40625 -4.875 20.101562 -4.21875 23.21875 -4.21875 C 26.695312 -4.21875 29.9375 -5.035156 32.9375 -6.671875 L 32.9375 -16.71875 L 23.78125 -16.71875 C 23.144531 -16.71875 22.601562 -16.9375 22.15625 -17.375 C 21.71875 -17.820312 21.5 -18.363281 21.5 -19 C 21.5 -19.625 21.71875 -20.160156 22.15625 -20.609375 C 22.601562 -21.054688 23.144531 -21.28125 23.78125 -21.28125 L 34.71875 -21.28125 C 35.457031 -21.28125 36.085938 -21.019531 36.609375 -20.5 C 37.128906 -19.976562 37.390625 -19.347656 37.390625 -18.609375 L 37.390625 -6 C 37.390625 -5.21875 37.191406 -4.519531 36.796875 -3.90625 C 36.410156 -3.300781 35.898438 -2.851562 35.265625 -2.5625 C 31.117188 -0.476562 26.878906 0.5625 22.546875 0.5625 Z M 22.546875 0.5625 "/></g></g></g><g fill="#fdfeff" fill-opacity="1"><g transform="translate(108.199937, 94.948835)"><g><path d="M 7.890625 0.28125 C 7.179688 0.28125 6.585938 0.0390625 6.109375 -0.4375 C 5.628906 -0.925781 5.390625 -1.519531 5.390625 -2.21875 L 5.390625 -36.5 C 5.390625 -37.195312 5.628906 -37.796875 6.109375 -38.296875 C 6.585938 -38.796875 7.179688 -39.046875 7.890625 -39.046875 C 8.585938 -39.046875 9.1875 -38.796875 9.6875 -38.296875 C 10.1875 -37.796875 10.4375 -37.195312 10.4375 -36.5 L 10.4375 -2.21875 C 10.4375 -1.519531 10.1875 -0.925781 9.6875 -0.4375 C 9.1875 0.0390625 8.585938 0.28125 7.890625 0.28125 Z M 7.890625 0.28125 "/></g></g></g><g fill="#fdfeff" fill-opacity="1"><g transform="translate(119.917724, 94.948835)"><g/></g></g><g fill="#fdfeff" fill-opacity="1"><g transform="translate(130.247003, 94.948835)"><g><path d="M 17.609375 0.5625 C 12.898438 0.5625 8.492188 -0.328125 4.390625 -2.109375 C 3.941406 -2.296875 3.566406 -2.601562 3.265625 -3.03125 C 2.972656 -3.457031 2.828125 -3.910156 2.828125 -4.390625 C 2.828125 -5.015625 3.039062 -5.554688 3.46875 -6.015625 C 3.894531 -6.484375 4.441406 -6.71875 5.109375 -6.71875 C 5.484375 -6.71875 5.835938 -6.644531 6.171875 -6.5 C 9.578125 -4.976562 13.222656 -4.21875 17.109375 -4.21875 C 23.585938 -4.21875 26.828125 -6.347656 26.828125 -10.609375 C 26.828125 -11.722656 26.410156 -12.648438 25.578125 -13.390625 C 24.742188 -14.128906 23.710938 -14.710938 22.484375 -15.140625 C 21.265625 -15.566406 19.53125 -16.070312 17.28125 -16.65625 C 14.28125 -17.4375 11.851562 -18.1875 10 -18.90625 C 8.144531 -19.632812 6.550781 -20.71875 5.21875 -22.15625 C 3.882812 -23.601562 3.21875 -25.53125 3.21875 -27.9375 C 3.21875 -30.050781 3.769531 -31.96875 4.875 -33.6875 C 5.988281 -35.40625 7.628906 -36.773438 9.796875 -37.796875 C 11.960938 -38.816406 14.566406 -39.328125 17.609375 -39.328125 C 21.679688 -39.328125 25.363281 -38.71875 28.65625 -37.5 C 29.695312 -37.125 30.21875 -36.378906 30.21875 -35.265625 C 30.21875 -34.679688 30.015625 -34.144531 29.609375 -33.65625 C 29.203125 -33.175781 28.664062 -32.9375 28 -32.9375 C 27.769531 -32.9375 27.472656 -33.007812 27.109375 -33.15625 C 24.222656 -34.15625 21.238281 -34.65625 18.15625 -34.65625 C 15.238281 -34.65625 12.863281 -34.097656 11.03125 -32.984375 C 9.195312 -31.878906 8.28125 -30.328125 8.28125 -28.328125 C 8.28125 -26.992188 8.710938 -25.910156 9.578125 -25.078125 C 10.453125 -24.242188 11.546875 -23.59375 12.859375 -23.125 C 14.171875 -22.664062 15.957031 -22.175781 18.21875 -21.65625 C 21.144531 -20.957031 23.503906 -20.253906 25.296875 -19.546875 C 27.097656 -18.847656 28.632812 -17.753906 29.90625 -16.265625 C 31.1875 -14.785156 31.828125 -12.789062 31.828125 -10.28125 C 31.828125 -8.207031 31.234375 -6.34375 30.046875 -4.6875 C 28.859375 -3.039062 27.191406 -1.753906 25.046875 -0.828125 C 22.898438 0.0976562 20.421875 0.5625 17.609375 0.5625 Z M 17.609375 0.5625 "/></g></g></g><g fill="#fdfeff" fill-opacity="1"><g transform="translate(160.348746, 94.948835)"><g><path d="M 7.890625 0 C 7.179688 0 6.585938 -0.238281 6.109375 -0.71875 C 5.628906 -1.195312 5.390625 -1.789062 5.390625 -2.5 L 5.390625 -36.21875 C 5.390625 -36.914062 5.628906 -37.515625 6.109375 -38.015625 C 6.585938 -38.515625 7.179688 -38.765625 7.890625 -38.765625 L 30.15625 -38.765625 C 30.820312 -38.765625 31.382812 -38.535156 31.84375 -38.078125 C 32.3125 -37.617188 32.546875 -37.054688 32.546875 -36.390625 C 32.546875 -35.722656 32.3125 -35.164062 31.84375 -34.71875 C 31.382812 -34.269531 30.820312 -34.046875 30.15625 -34.046875 L 10.4375 -34.046875 L 10.4375 -21.78125 L 28.15625 -21.78125 C 28.820312 -21.78125 29.382812 -21.546875 29.84375 -21.078125 C 30.3125 -20.617188 30.546875 -20.054688 30.546875 -19.390625 C 30.546875 -18.722656 30.3125 -18.164062 29.84375 -17.71875 C 29.382812 -17.269531 28.820312 -17.046875 28.15625 -17.046875 L 10.4375 -17.046875 L 10.4375 -4.71875 L 30.15625 -4.71875 C 30.820312 -4.71875 31.382812 -4.484375 31.84375 -4.015625 C 32.3125 -3.554688 32.546875 -2.992188 32.546875 -2.328125 C 32.546875 -1.660156 32.3125 -1.101562 31.84375 -0.65625 C 31.382812 -0.21875 30.820312 0 30.15625 0 Z M 7.890625 0 "/></g></g></g><g fill="#fdfeff" fill-opacity="1"><g transform="translate(191.672386, 94.948835)"><g><path d="M 8.890625 0 C 7.921875 0 7.09375 -0.34375 6.40625 -1.03125 C 5.726562 -1.71875 5.390625 -2.539062 5.390625 -3.5 L 5.390625 -36.5 C 5.390625 -37.195312 5.628906 -37.796875 6.109375 -38.296875 C 6.585938 -38.796875 7.179688 -39.046875 7.890625 -39.046875 C 8.585938 -39.046875 9.1875 -38.796875 9.6875 -38.296875 C 10.1875 -37.796875 10.4375 -37.195312 10.4375 -36.5 L 10.4375 -5.0625 L 28.609375 -5.0625 C 29.304688 -5.0625 29.90625 -4.8125 30.40625 -4.3125 C 30.90625 -3.8125 31.15625 -3.207031 31.15625 -2.5 C 31.15625 -1.789062 30.90625 -1.195312 30.40625 -0.71875 C 29.90625 -0.238281 29.304688 0 28.609375 0 Z M 8.890625 0 "/></g></g></g><g fill="#fdfeff" fill-opacity="1"><g transform="translate(219.552507, 94.948835)"><g><path d="M 8.890625 0 C 7.921875 0 7.09375 -0.34375 6.40625 -1.03125 C 5.726562 -1.71875 5.390625 -2.539062 5.390625 -3.5 L 5.390625 -36.5 C 5.390625 -37.195312 5.628906 -37.796875 6.109375 -38.296875 C 6.585938 -38.796875 7.179688 -39.046875 7.890625 -39.046875 C 8.585938 -39.046875 9.1875 -38.796875 9.6875 -38.296875 C 10.1875 -37.796875 10.4375 -37.195312 10.4375 -36.5 L 10.4375 -5.0625 L 28.609375 -5.0625 C 29.304688 -5.0625 29.90625 -4.8125 30.40625 -4.3125 C 30.90625 -3.8125 31.15625 -3.207031 31.15625 -2.5 C 31.15625 -1.789062 30.90625 -1.195312 30.40625 -0.71875 C 29.90625 -0.238281 29.304688 0 28.609375 0 Z M 8.890625 0 "/></g></g></g><g clip-path="url(#9564de6589)"><path fill="#4c56af" d="M 297.984375 52.074219 C 291.640625 52.074219 286.5 46.914062 286.5 40.546875 C 286.5 34.183594 291.640625 29.023438 297.984375 29.023438 C 304.324219 29.023438 309.464844 34.183594 309.464844 40.546875 C 309.464844 46.914062 304.324219 52.074219 297.984375 52.074219 Z M 297.984375 21.835938 C 287.6875 21.835938 279.339844 30.214844 279.339844 40.546875 C 279.339844 50.882812 287.6875 59.257812 297.984375 59.257812 C 308.277344 59.257812 316.625 50.882812 316.625 40.546875 C 316.625 30.214844 308.277344 21.835938 297.984375 21.835938 " fill-opacity="1" fill-rule="nonzero"/></g><path fill="#4c56af" d="M 297.984375 33.734375 C 294.230469 33.734375 291.191406 36.785156 291.191406 40.546875 C 291.191406 44.3125 294.230469 47.363281 297.984375 47.363281 C 301.730469 47.363281 304.777344 44.3125 304.777344 40.546875 C 304.777344 36.785156 301.730469 33.734375 297.984375 33.734375 " fill-opacity="1" fill-rule="nonzero"/><path fill="#51c7f4" d="M 303.605469 83.375 C 303.605469 86.492188 301.089844 89.019531 297.984375 89.019531 C 294.875 89.019531 292.359375 86.492188 292.359375 83.375 L 292.359375 43.117188 C 292.359375 40 294.875 37.472656 297.984375 37.472656 C 301.089844 37.472656 303.605469 40 303.605469 43.117188 L 303.605469 83.375 " fill-opacity="1" fill-rule="nonzero"/><path fill="#51c7f4" d="M 296.335938 95.777344 C 298.527344 97.980469 298.527344 101.554688 296.335938 103.761719 C 294.140625 105.964844 290.578125 105.964844 288.382812 103.761719 C 288.382812 103.761719 283.683594 99.414062 278.5 94.558594 C 273.992188 90.332031 269.117188 85.722656 266.660156 83.25 C 264.460938 81.046875 263.84375 75.109375 266.9375 74.847656 C 275.917969 74.085938 296.335938 95.777344 296.335938 95.777344 " fill-opacity="1" fill-rule="nonzero"/><path fill="#51c7f4" d="M 314.847656 99.769531 C 314.847656 102.882812 312.332031 105.414062 309.226562 105.414062 C 306.121094 105.414062 303.605469 102.882812 303.605469 99.769531 L 303.605469 69.589844 C 303.605469 66.472656 306.121094 63.945312 309.226562 63.945312 C 312.332031 63.945312 314.847656 66.472656 314.847656 69.589844 L 314.847656 99.769531 " fill-opacity="1" fill-rule="nonzero"/><path fill="#51c7f4" d="M 326.09375 104.109375 C 326.09375 107.226562 323.574219 109.753906 320.472656 109.753906 C 317.367188 109.753906 314.847656 107.226562 314.847656 104.109375 L 314.847656 73.925781 C 314.847656 70.8125 317.367188 68.289062 320.472656 68.289062 C 323.574219 68.289062 326.09375 70.8125 326.09375 73.925781 L 326.09375 104.109375 " fill-opacity="1" fill-rule="nonzero"/><path fill="#51c7f4" d="M 336.839844 108.027344 C 336.839844 111 334.433594 113.417969 331.464844 113.417969 C 328.5 113.417969 326.09375 111 326.09375 108.027344 L 326.09375 79.1875 C 326.09375 76.207031 328.5 73.792969 331.464844 73.792969 C 334.433594 73.792969 336.839844 76.207031 336.839844 79.1875 L 336.839844 108.027344 " fill-opacity="1" fill-rule="nonzero"/><g clip-path="url(#b6395d71f5)"><path fill="#51c7f4" d="M 308.824219 76.980469 C 302.863281 76.980469 296.898438 78.832031 292.359375 82.019531 C 292.359375 84.679688 292.210938 88.59375 288.34375 88.59375 C 287.625 88.59375 286.773438 87.46875 286.21875 87.242188 C 282.714844 91.933594 277.183594 93.386719 281.628906 97.855469 C 290.691406 106.949219 286.011719 127.414062 301.460938 127.414062 C 310.957031 127.414062 323.285156 128.175781 327.828125 126.289062 C 334.277344 123.617188 337.335938 109.644531 337.335938 105.066406 C 337.335938 89.550781 324.273438 76.980469 308.824219 76.980469 " fill-opacity="1" fill-rule="nonzero"/></g></svg>